# xmcd
#
# Track frame offsets:
#	180
#	16063
#	26619
#	35372
#	47864
#	59945
#	71145
#	81034
#	97938
#	112971
#	123996
#	136716
#	152219
#	166126
#
# Disc length: 2353 seconds
#
# Revision: 0
# Processed by: cddbd v1.5.2PL0 Copyright (c) Steve Scherf et al.
# Submitted via: EasyCDDAExtractor 4.6.9.1
#
DISCID=b1092f0e
DTITLE=KBS 가요무대 - CD6
DYEAR=1991
DGENRE=Oldies
TTITLE0=낙화유수
TTITLE1=열 아홉 순정
TTITLE2=낭랑 18세
TTITLE3=안개낀 장충단 공원
TTITLE4=청춘을 돌려다오
TTITLE5=앵두나무 처녀
TTITLE6=코스모스 피어있는 길
TTITLE7=경상도 아가씨
TTITLE8=뜨거운 안녕
TTITLE9=청춘 브라보도
TTITLE10=가는봄 오는 봄
TTITLE11=모녀기타
TTITLE12=호반에서 만난 사람
TTITLE13=황혼의 엘레지
EXTD=
EXTT0=
EXTT1=
EXTT2=
EXTT3=
EXTT4=
EXTT5=
EXTT6=
EXTT7=
EXTT8=
EXTT9=
EXTT10=
EXTT11=
EXTT12=
EXTT13=
PLAYORDER=
